<svg version="1.1" xmlns="http://www.w3.org/2000/svg" width="200" height="90" viewBox="-1011.1977320765911 -2448.188411860809 4312.47251486209 3534.942464786674"><desc>Created with Snap</desc><defs></defs><g><g transform="matrix(9.299,0,0,9.299,-714.9242,-2443.2058)">
<g id="gSl5l7oqcx5gk">
	<g>
		<path d="M162.71262,346.57227c-14.57422,0.00098-26.57324-0.58203-34.60059-1.12695
			c-43.97167-2.98145-97.11523-10.67871-117.94823-44.00879c-12.57422-20.11719-11.95312-47.54297,1.84473-81.51465
			c10.75293-26.47314,66.19141-80.56641,82.92578-96.51514c40.24706-38.35449,79.8789-70.68994,96.37695-78.63379l1.08496,2.25244
			l-1.08496-2.25244c24.00977-11.56006,50.65137-15.04297,77.04883-10.06885c24.47852,4.61182,48.42383,16.30225,69.24707,33.80713
			c23.28809,19.57715,41.71094,45.91064,51.87402,74.1499c11.04004,30.67285,12.3623,62.81934,3.82422,92.96387
			c-12.95508,45.74023-50.76758,78.02441-112.38672,95.95703C239.05637,343.76465,194.69406,346.57227,162.71262,346.57227z
			 M244.99973,37.46191c-17.61816,0-35.0625,3.89209-51.51855,11.81592C159.5759,65.60254,32.40207,182.99951,16.64133,221.80273
			c-13.16113,32.40234-13.91406,58.30371-2.2373,76.9834c19.63281,31.41113,71.26172,38.76953,114.04589,41.6709
			c25.37988,1.7207,90.90137,3.83496,151.07227-13.67578c59.85449-17.41895,96.51855-48.54688,108.97266-92.51953
			c8.25098-29.13379,6.96582-60.22314-3.71777-89.90771c-9.86914-27.42139-27.76367-52.99707-50.38672-72.01514
			C307.01828,49.32959,275.7507,37.46191,244.99973,37.46191z" fill="#85421e" style=""></path>
	</g>
</g>


<desc>Created with Snap</desc><defs></defs></g><g><g transform="matrix(1.024,0,0,-1.024,0,0)"><path d="M327 -8Q194 -8 114 42Q34 93 34 197Q34 252 53 281Q72 310 109 310Q136 310 153 296Q170 282 170 260Q170 240 167 225Q167 221 165 211Q164 201 164 190Q164 145 209 123Q255 101 337 101Q422 101 470 131Q518 162 518 217Q518 251 496 275Q474 300 441 316Q408 333 348 357Q271 387 222 414Q174 441 139 487Q105 534 105 603Q105 675 143 731Q182 787 254 818Q327 849 425 849Q498 849 559 827Q620 806 656 762Q693 718 693 654Q693 591 674 559Q655 527 618 527Q592 527 574 543Q557 559 557 581Q557 600 560 616Q563 646 563 654Q563 696 522 718Q481 740 420 740Q334 740 288 708Q243 677 243 620Q243 582 266 555Q290 528 325 510Q360 492 423 467Q499 436 545 411Q591 386 623 343Q656 300 656 237Q656 119 566 55Q477 -8 327 -8ZM1187 223Q1200 223 1207 211Q1215 199 1215 178Q1215 138 1196 116Q1153 63 1102 29Q1051 -5 985 -5Q781 -5 781 282Q781 326 784 371L745 371Q715 371 704 382Q694 393 694 417Q694 473 739 473L796 473Q813 583 848 674Q883 765 932 819Q982 873 1039 873Q1081 873 1105 836Q1129 799 1129 743Q1129 588 999 473L1111 473Q1127 473 1134 466Q1141 459 1141 440Q1141 371 1028 371L906 371Q904 321 904 293Q904 189 928 147Q953 105 1006 105Q1049 105 1082 131Q1115 157 1160 209Q1172 223 1187 223ZM1012 777Q997 777 978 739Q960 702 943 635Q927 569 916 488Q975 539 1004 602Q1034 666 1034 718Q1034 777 1012 777ZM1644 307Q1657 307 1664 294Q1671 281 1671 261Q1671 213 1642 204Q1582 183 1510 180Q1491 96 1435 45Q1379 -5 1308 -5Q1248 -5 1205 24Q1163 53 1141 101Q1119 149 1119 205Q1119 281 1148 340Q1177 400 1228 433Q1279 467 1341 467Q1417 467 1463 414Q1510 362 1518 285Q1565 288 1630 305Q1638 307 1644 307ZM1316 101Q1348 101 1371 127Q1395 153 1403 202Q1372 223 1355 257Q1339 291 1339 329Q1339 345 1342 361L1337 361Q1297 361 1270 322Q1244 284 1244 214Q1244 159 1265 130Q1287 101 1316 101ZM1656 -5Q1618 -5 1602 35Q1587 75 1587 163Q1587 293 1624 410Q1633 439 1653 452Q1674 466 1711 466Q1731 466 1739 461Q1747 456 1747 442Q1747 426 1732 370Q1722 330 1716 300Q1710 270 1706 226Q1739 312 1780 366Q1821 420 1860 443Q1900 466 1933 466Q1998 466 1998 401Q1998 388 1989 338Q1981 298 1981 288Q1981 253 2006 253Q2034 253 2078 297Q2091 310 2105 310Q2118 310 2125 298Q2133 287 2133 268Q2133 231 2113 210Q2085 181 2047 160Q2010 140 1968 140Q1915 140 1887 167Q1860 194 1860 240Q1860 255 1863 270Q1865 290 1865 297Q1865 313 1854 313Q1839 313 1814 279Q1790 246 1766 191Q1742 136 1727 75Q1716 28 1701 11Q1687 -5 1656 -5ZM2486 223Q2499 223 2506 211Q2514 199 2514 178Q2514 138 2495 116Q2458 71 2390 33Q2323 -5 2246 -5Q2141 -5 2083 52Q2025 109 2025 208Q2025 277 2054 336Q2083 396 2134 431Q2186 466 2251 466Q2309 466 2344 431Q2379 397 2379 338Q2379 269 2329 219Q2280 170 2162 141Q2187 95 2257 95Q2302 95 2359 126Q2417 158 2459 209Q2471 223 2486 223ZM2234 368Q2197 368 2171 325Q2146 282 2146 221L2146 219Q2205 233 2239 261Q2273 289 2273 326Q2273 345 2262 356Q2252 368 2234 368Z" fill="#85421e" style=""></path></g></g></g></svg>